<?xml version="1.0" encoding="utf-8"?>
<!-- Generator: Adobe Illustrator 27.5.0, SVG Export Plug-In . SVG Version: 6.00 Build 0)  -->
<svg version="1.1" xmlns="http://www.w3.org/2000/svg" xmlns:xlink="http://www.w3.org/1999/xlink" x="0px" y="0px"
	 viewBox="0 0 500 500" style="enable-background:new 0 0 500 500;" xml:space="preserve">
<g id="BACKGROUND">
	<rect x="-0.005" y="0.005" style="fill:#F3F5F9;" width="500.009" height="499.99"/>
</g>
<g id="OBJECTS">
	<ellipse style="fill:#C9D2DE;" cx="250" cy="440.271" rx="219.474" ry="29.468"/>
	<g>
		<defs>
			<rect id="SVGID_1_" x="-0.005" y="0.005" width="500.009" height="499.99"/>
		</defs>
		<clipPath id="SVGID_00000182493051371166946780000002436643726867175348_">
			<use xlink:href="#SVGID_1_"  style="overflow:visible;"/>
		</clipPath>
		<g style="clip-path:url(#SVGID_00000182493051371166946780000002436643726867175348_);">
			<path style="fill:#C9D1F8;" d="M96.974,386.437c11.993,6.164,26.82,7.906,42.194,5.263c4.214-0.724,8.49-1.286,12.553-2.912
				c2.118-0.847,3.216-1.651,3.482-4.186c3.735-35.62-20.326-70.405-58.122-74.777c-11.734-1.358-23.307-0.241-34.912,1.154
				c-2.021,0.243-3.543,0.526-3.011,3.308c2.928,15.309,5.636,30.662,12.482,44.885C76.925,370.156,84.417,379.151,96.974,386.437z"
				/>
			<path style="fill:#C5CDF6;" d="M122.881,440.857c5.266,0.241,9.042-2.519,12.327-6.192c3.301-3.69,5.652-8.062,8.522-12.063
				c3.457-4.82,7.267-9.162,13.151-11.11c2.895-0.958,1.98-3.39,1.953-5.453c0.041-0.297,0.082-0.594,0.124-0.891
				c0.818-1.792,1.163-3.742-0.483-5.084c-7.65-6.24-13.685-14.318-22.063-19.68c-4.619-2.956-9.239-6.19-15.046-6.536
				c-0.327-0.042-0.653-0.084-0.98-0.126c0,0,0,0,0,0c-3.211-0.476-4.685,1.52-5.966,4.014c-4.141,8.058-4.834,8.177-11.931,2.389
				c-6.431-5.245-13.482-9.209-21.841-10.322c-4.63-0.616-9.18-0.349-13.337,2.154c0.025,0.431,0.051,0.863,0.076,1.295
				c-0.474-0.013-0.947-0.025-1.421-0.038c-3.558,1.741-4.552,4.728-3.853,8.369c0.446,2.325,2.165,4.929-0.554,6.644
				c-2.653,1.674-4.953-0.328-7.066-1.813c-3.195-2.248-6.426-4.262-10.6-3.594c-0.635,0.101-1.176,0.286-1.561,0.818
				c0.172,0.564,0.536,1.012,0.948,1.431c-0.413-0.418-0.777-0.866-0.948-1.43c-0.306,0.047-0.612,0.095-0.918,0.143l0,0
				c-2.868,1.334-2.868,3.475-1.995,6.14c1.382,4.219,0.658,6.138-3.032,8.544c-2.324,1.515-4.829,2.753-7.159,4.26
				c-2.924,1.891-3.84,4.793-3.345,8.079c0.447,2.97,2.825,4.324,5.33,5.248c2.159,0.796,4.426,1.325,6.676,1.842
				c2.39,0.549,3.768,1.786,3.991,4.376c0.13,1.513,0.639,3.026,1.182,4.462c1.626,4.301,4.338,5.813,8.984,5.49
				c2.993-0.208,5.691-1.322,8.457-2.257c1.46-0.493,2.847-1.213,4.317-1.664c4.364-1.341,5.407-0.806,6.608,3.6
				c0.864,3.17,2.14,5.809,5.854,6.236c0.589,0.018,1.177,0.035,1.766,0.052c3.631,0.976,6.979-0.08,10.252-1.493
				c4.694-2.027,9.023-4.736,13.43-7.299c1.332-0.775,2.674-1.548,4.072-2.192c4.917-2.265,5.241-2.063,5.746,3.297
				c0.659,6.993,3.35,10.027,9.262,10.444C122.168,440.914,122.524,440.886,122.881,440.857z"/>
			<g>
				<g>
					<path style="fill:#C9D1F8;" d="M245.16,293.057c-0.005-0.318-0.01-0.636-0.016-0.954c-1.626-1.397-3.396-0.978-5.261-0.565
						c-19.841,4.391-39.428,1.944-58.262-4.303c-20.588-6.829-38.735-18.145-53.078-34.931c-6.767-7.919-12.545-16.494-16-26.259
						c-5.95-16.816-6.169-34.012-2.174-51.4c0.755-3.285,3.245-6.575,1.328-10.28c-12.393,8.166-21.906,18.625-26.576,33.036
						c-1.106,3.413-1.689,6.899-2.124,10.412c-0.842,6.8,1.848,11.165,8.127,13.97c1.018,0.454,2.565,0.314,2.994,1.791
						c-0.109,1.224-1.199,1.496-1.949,1.784c-6.598,2.536-7.481,7.688-6.973,13.908c0.651,7.974,0.467,8.013,8.366,7.711
						c0.381,0.86-0.033,1.704-0.661,1.971c-4.997,2.127-4.137,5.47-2.415,9.44c1.981,4.568,4.479,8.821,7.279,12.865
						c3.31,4.781,7.451,7.975,13.98,6.311c4.163-1.061,8.526-1.342,13.307-2.048c-1.497,4.027-4.884,5.868-7.534,8.072
						c-3.086,2.566-3.222,4.548-0.443,7.071c6.493,5.895,13.329,11.356,20.632,16.221c4.439,2.957,8.894,1.794,13.274-0.059
						c3.703-1.567,7.272-3.455,10.995-4.967c1.471-0.597,3.54-2.128,4.659-0.772c1.323,1.603-1.133,2.815-1.906,4.192
						c-0.67,1.195-1.718,2.177-2.582,3.266c-3.322,4.19-3.297,4.678,1.826,6.858c10.762,4.58,22.118,5.057,33.638,4.907
						c15.076-0.196,27.781-6.788,40.076-14.364c3.598-2.217,6.325-5.872,6.635-10.593
						C243.922,294.339,244.16,293.559,245.16,293.057z"/>
					<path style="fill:#C9D1F8;" d="M245.052,287.306c-3.457-12.36-13.522-17.817-24.05-22.478
						c-5.026-2.225-10.535-3.357-15.827-4.98c-3.566-1.094-5.252,0.392-6.201,3.885c-0.793,2.919-2.368,5.625-3.588,8.429
						c-0.371,0.853-0.683,1.857-1.853,1.722c-1.249-0.144-1.028-1.343-1.271-2.164c-1.122-3.789-0.253-7.686-0.516-11.532
						c-0.19-2.786-1.23-4.099-3.725-5.071c-5.013-1.954-9.955-4.112-14.823-6.408c-2.265-1.068-3.656-1.314-4.403,1.622
						c-0.301,1.182-0.858,2.884-2.631,2.704c-1.836-0.186-1.721-1.988-2.032-3.249c-0.444-1.799-1.246-3.805-0.842-5.467
						c1.527-6.284-2.04-10.228-5.806-14.235c-5.78-6.15-11.839-11.995-18.774-17.691c-1.596,5.044-3.085,9.75-4.865,15.377
						c-1.965-2.997-2.014-5.305-1.876-7.706c0.203-3.539,0.222-7.09,0.471-10.625c0.148-2.095-1.446-3.274-2.608-4.088
						c-10.708-7.496-14.822-18.174-15.347-30.699c-4.105,6.963-4.24,28.215-2.396,37.665c3.879,19.875,14.924,35.544,30.036,48.513
						c16.634,14.275,35.828,23.039,57.44,26.997C214.853,290.629,229.924,290.449,245.052,287.306z"/>
				</g>
				<path style="fill:#E1E5FA;" d="M245.052,287.306c2.57-0.598,5.104-1.281,7.603-2.041l0.797,3.361
					c-2.894,0.808-5.731,1.775-8.307,3.477c-1.626-1.397-3.396-0.978-5.261-0.565c-19.841,4.391-39.428,1.944-58.262-4.303
					c-20.588-6.829-38.735-18.145-53.078-34.931c-6.767-7.919-12.545-16.494-16-26.259c-5.95-16.816-6.169-34.012-2.174-51.4
					c0.743-3.235,3.161-6.477,1.402-10.112c1.091-0.197,2.067-0.564,2.524-1.703c-0.185-0.679,0.005-1.232,0.67-1.478
					c0.715-0.264,1.362,0.062,1.089,0.816c-1.47,4.054,0.184,8.485-1.57,12.486c-4.105,6.963-4.24,28.215-2.396,37.665
					c3.879,19.875,14.924,35.544,30.036,48.513c16.634,14.275,35.828,23.039,57.44,26.997
					C214.853,290.629,229.924,290.449,245.052,287.306z"/>
			</g>
			<g>
				<path style="fill:#C5CDF6;" d="M218.516,302.447c-0.143,0.284-0.286,0.569-0.428,0.853c-2.072,0.552-3.484-0.594-4.984-1.776
					c-15.965-12.572-34.671-18.874-54.349-21.426c-21.511-2.79-42.771-0.477-62.981,8.414c-9.535,4.195-18.463,9.409-25.816,16.705
					c-12.662,12.563-20.328,27.958-24.281,45.356c-0.747,3.287,0.067,7.332-3.268,9.836c-7.617-12.738-11.644-26.29-9.592-41.299
					c0.486-3.554,1.474-6.948,2.608-10.302c2.195-6.491,6.513-9.255,13.388-9.054c1.114,0.033,2.447,0.832,3.475-0.313
					c0.433-1.15-0.431-1.869-0.981-2.454c-4.842-5.15-3.4-10.174-0.241-15.557c4.05-6.9,3.901-7.015,10.885-3.313
					c0.717-0.609,0.71-1.549,0.26-2.063c-3.578-4.086-1.351-6.723,1.924-9.552c3.769-3.254,7.865-6,12.144-8.428
					c5.058-2.869,10.175-3.948,15.334,0.386c3.289,2.764,7.097,4.912,11.097,7.624c0.4-4.277-1.851-7.407-3.281-10.543
					c-1.665-3.651-0.927-5.496,2.672-6.562c8.409-2.49,16.938-4.44,25.63-5.651c5.282-0.736,8.79,2.247,11.931,5.818
					c2.655,3.019,5.049,6.27,7.747,9.249c1.066,1.177,2.264,3.454,3.861,2.719c1.888-0.869,0.202-3.028,0.104-4.603
					c-0.085-1.368-0.602-2.707-0.907-4.063c-1.173-5.217-0.939-5.646,4.623-5.385c11.684,0.548,22.12,5.05,32.431,10.188
					c13.495,6.724,22.077,18.18,29.862,30.343c2.278,3.56,3.147,8.036,1.376,12.423
					C217.958,300.755,217.833,301.561,218.516,302.447z"/>
				<path style="fill:#C2CBF5;" d="M215.922,307.58c-8.482,9.632-19.918,10.177-31.425,9.803
					c-5.493-0.179-10.948-1.551-16.419-2.387c-3.687-0.564-4.56-2.634-3.899-6.192c0.553-2.974,0.31-6.095,0.428-9.151
					c0.036-0.93,0.191-1.969-0.921-2.356c-1.187-0.413-1.509,0.763-2.085,1.397c-2.656,2.926-3.566,6.814-5.473,10.164
					c-1.382,2.427-2.888,3.158-5.558,2.95c-5.364-0.417-10.753-0.619-16.135-0.665c-2.504-0.021-3.864-0.404-3.262-3.374
					c0.243-1.195,0.48-2.97-1.195-3.578c-1.735-0.629-2.413,1.043-3.241,2.045c-1.181,1.428-2.775,2.887-3.133,4.559
					c-1.354,6.323-6.28,8.327-11.412,10.301c-7.878,3.03-15.873,5.664-24.594,7.783c0.753-5.236,1.456-10.122,2.296-15.964
					c-3.072,1.846-4.118,3.904-5.037,6.126c-1.355,3.276-2.879,6.483-4.19,9.776c-0.777,1.951-2.725,2.321-4.125,2.549
					c-12.901,2.102-21.244,9.933-27.157,20.988c-0.674-8.055,8.434-27.257,14.199-34.968c12.125-16.218,28.879-25.536,48.124-30.655
					c21.183-5.634,42.279-5.194,63.465,0.627C190.162,291.472,203.66,298.18,215.922,307.58z"/>
				<path style="fill:#E1E5FA;" d="M215.921,307.58c2.056,1.655,4.041,3.37,5.962,5.141l2.177-2.682
					c-2.256-1.985-4.391-4.088-5.973-6.739c-2.071,0.552-3.484-0.594-4.984-1.776c-15.965-12.572-34.671-18.874-54.349-21.426
					c-21.511-2.79-42.771-0.477-62.982,8.414c-9.535,4.195-18.463,9.409-25.816,16.705c-12.662,12.563-20.328,27.958-24.281,45.356
					c-0.736,3.237,0.034,7.207-3.129,9.718c0.897,0.651,1.617,1.405,1.534,2.631c-0.461,0.531-0.53,1.112-0.038,1.622
					c0.529,0.548,1.254,0.535,1.336-0.262c0.436-4.29,3.85-7.563,4.008-11.929c-0.674-8.055,8.434-27.257,14.199-34.968
					c12.125-16.218,28.879-25.536,48.124-30.655c21.183-5.635,42.279-5.194,63.465,0.627
					C190.162,291.472,203.66,298.179,215.921,307.58z"/>
			</g>
			<path style="fill:#277C38;" d="M416.442,325.971c-0.271,0.497-0.658,0.707-1.215,0.496c0.002,0.005-0.043-0.108-0.044-0.112
				c0.28-0.492,0.67-0.699,1.223-0.477C416.404,325.876,416.442,325.971,416.442,325.971z"/>
			<path style="fill:#C2CBF5;" d="M364.3,159.982c-12.726-0.711-23.905,3.68-34.539,10.243c-3.586,2.213-4.902,4.898-5.084,8.974
				c-0.165,3.711,0.058,7.678-2.092,11.258c-4.397-2.067-3.422-6.608-4.994-10.247c-1.606,1.62-2.96,2.876-4.189,4.245
				c-7.701,8.578-13.874,18.16-19.081,28.438c-4.424,8.731-4.117,10.905,3.686,17.013c1.948,1.525,3.956,2.973,5.93,4.465
				c0.789,0.596,1.95,0.907,1.892,2.351c-2.547,1.249-5.053,1.247-7.678,0.418c-3.325-1.049-6.189-2.824-8.679-5.21
				c-1.764-1.691-2.919-1.411-3.616,0.907c-3.215,10.687-6.044,21.444-6.55,32.683c-0.081,1.804,0.546,2.969,1.898,3.909
				c1.651,1.148,3.345,2.234,4.988,3.394c2.694,1.901,5.9,2.729,8.763,4.253c0.99,0.527,2.487,0.989,2.337,2.55
				c-0.137,1.421-1.424,1.898-2.529,2.476c-2.131,1.116-4.345,1.443-6.744,1.121c-2.892-0.388-5.556-1.468-8.322-2.967
				c-0.303,2.102-0.055,3.587,0.128,5.094c1.017,8.367,3.44,16.313,7.093,23.89c7.453,15.459,19.085,26.399,35.226,32.426
				c0.949,0.354,1.993,1.146,2.88-0.162c11.04-9.122,19.112-20.369,24.681-33.839c-1.235-0.145-1.995-0.25-2.758-0.322
				c-2.014-0.19-3.681-1.058-4.246-3.042c-0.648-2.277,0.775-3.94,2.479-5.082c1.657-1.11,3.569-1.849,5.397-2.691
				c1.754-0.808,3.137-1.787,3.549-3.917c2.07-10.703,2.681-21.496,2.428-32.376c-0.065-2.78-1.279-2.666-3.217-1.924
				c-2.03,0.777-4.104,1.384-6.295,1.573c-1.32,0.114-2.648,0.036-3.267-1.193c-0.535-1.063,0.273-2.06,0.966-2.925
				c2.254-2.812,4.76-5.387,8.181-6.694c2.659-1.016,3.287-2.741,3.117-5.417c-0.501-7.871-1.092-15.748-0.84-23.646
				c0.057-1.79-0.261-2.941-2.439-2.837c-2.098,0.1-3.525-1.079-4.241-2.997c-0.829-2.22,0.246-3.913,1.78-5.376
				c0.78-0.743,1.575-1.562,2.521-2.023c2.229-1.087,2.971-2.839,3.203-5.207c1.397-14.305,6.052-27.589,12.86-40.174
				C367.797,159.516,365.888,160.071,364.3,159.982z"/>
			<path style="fill:#C2CBF5;" d="M262.826,220.121c-3.854,1.188-6.825,2.988-10.23,3.293c-0.882,0.079-1.938,0.406-2.413-0.723
				c-0.442-1.049,0.311-1.755,0.984-2.384c2.732-2.558,5.82-4.761,9.14-6.314c4.656-2.178,6.27-5.775,6.917-10.489
				c1.286-9.357,1.588-18.633-0.872-28.538c-1.98,3.109-3.672,5.71-6.459,7.206c-1.02,0.548-2.134,1.821-3.3,0.708
				c-0.853-0.815-0.175-2.069,0.227-3.045c1.649-4.007,3.36-7.988,5.034-11.984c0.737-1.759,1.107-3.496,0.156-5.357
				c-5.768-11.285-14.129-20.238-24.501-27.401c-1.722-1.189-2.693-0.903-3.196,1.302c-0.607,2.66-1.441,5.305-4.697,7.139
				c-0.288-3.814-0.795-7.167-0.702-10.502c0.062-2.208-0.487-3.418-2.519-4.296c-10.467-4.523-21.167-7.885-32.773-7.165
				c-1.789-0.646-3.488-0.647-2.497,1.856c1.628,4.113,1.031,8.211,0.6,12.343c-0.789,7.563-2.74,14.899-4.532,22.259
				c-0.588,2.413-0.301,3.848,2.543,4.153c2.636,0.282,5.015,1.531,7.419,2.589c0.852,0.375,1.719,0.938,1.739,1.993
				c0.022,1.189-1.072,1.285-1.895,1.686c-3.151,1.533-6.583,1.753-9.959,2.055c-2.249,0.201-3.099,1.134-3.556,3.322
				c-1.679,8.041-2.579,16.16-2.884,24.349c-0.145,3.91,0.627,4.423,4.289,3.243c0.439-0.142,0.831-0.44,1.273-0.566
				c5.116-1.457,10.21-3.096,15.686-2.593c0.059,2.002-1.319,2.232-2.321,2.846c-4.772,2.923-10.103,4.657-15.109,7.087
				c-1.895,0.92-2.47,1.868-1.883,3.958c1.694,6.03,4.319,11.549,8.028,16.608c1.563,2.132,3.256,2.947,5.925,2.469
				c5.653-1.011,11.078-2.807,16.559-4.417c2.044-0.6,4.038-1.388,6.764-0.879c-1.692,4.281-5.433,5.601-8.731,7.254
				c-3.506,1.757-7.397,2.557-11.465,3.546c0.587,0.681,0.829,1.082,1.176,1.341c0.743,0.553,1.512,1.085,2.321,1.535
				c14.071,7.826,29.529,9.661,45.229,10.433c0.654,0.032,1.186-0.266,1.521-0.857C255.318,240.218,259.473,230.69,262.826,220.121z
				"/>
			<g>
				<rect x="113.387" y="202.991" style="fill:#F0F0FB;" width="197.859" height="242.939"/>
				<g>
					<g>
						<g>
							<path style="fill:#FEFEFE;" d="M198.315,256.29c0,5.048-1.22,9.812-3.383,14.008c-6.404-2.608-15.551-4.235-25.712-4.235
								c-11.575,0-21.839,2.117-28.223,5.384c-2.55-4.467-4.003-9.644-4.003-15.157c0-16.933,13.724-30.663,30.657-30.663
								C184.591,225.627,198.315,239.357,198.315,256.29z"/>
							<path style="fill:#B1B9DE;" d="M194.932,270.298c-5.08,9.89-15.39,16.655-27.281,16.655c-11.42,0-21.381-6.242-26.655-15.506
								c6.384-3.266,16.649-5.384,28.223-5.384C179.381,266.063,188.529,267.69,194.932,270.298z"/>
							<g>
								<path style="fill:#FE8B97;" d="M159.198,257.221c-3.802,1.077-6.925-0.519-8.35-4.267c-1.715-4.512-0.843-8.83,2.677-9.785
									c2.731-0.742,3.043-2.383,3.707-4.415c1.809-5.536,6.235-7.881,11.573-8.497c5.304-0.612,9.168,2.031,12.016,6.382
									c0.578,0.883,1.576,7.316,0.882,10.144c-1.032-1.929-1.882-1.547-3.007-0.692c-3.349,2.545-7.357,3.602-11.335,4.671
									c-1.718,0.462-2.993,0.077-3.359-1.96c-0.168-0.934-0.737-1.861-1.843-1.625c-1.223,0.261-0.908,1.4-0.85,2.281
									c0.045,0.689,0.342,1.319,0.611,1.953c1.146,2.7,0.686,3.946-1.938,5.339C159.713,256.893,159.462,257.068,159.198,257.221z
									"/>
								<path style="fill:#F7A683;" d="M180.969,243.631c-3.951,3.505-8.457,5.164-13.182,6.391c-0.152,0.04-0.3,0.079-0.446,0.117
									c-0.123-2.368-2.076-4.252-4.475-4.252c-2.478,0-4.487,2.009-4.487,4.487c0,2.078,1.414,3.821,3.331,4.331
									c-0.326,0.526-0.823,1.007-1.347,1.481c-0.381,0.342-0.936,0.504-1.168,1.033c1.175-0.336,1.82-0.303,1.969,1.317
									c0.29,3.254,0.471,6.404-1.549,9.231c1.859,4.487,5.126,7.785,9.18,10.238c3.131,1.885,5.429,0.316,5.565-3.389
									c0.045-1.22-0.839-4.422-1.265-6.965c-0.284-1.737-0.362-3.157,0.22-3.434c0.052-0.032,0.116-0.045,0.181-0.052
									c1.853-0.148,2.963-1.381,3.841-2.834c2.498-4.132,3.254-13.963,3.402-14.563c0.194-0.794,0.316-1.595,0.381-2.395
									C181.073,244.134,181.021,243.895,180.969,243.631z"/>
								<path style="fill:#B67A62;" d="M173.094,267.651c-0.484-0.239-0.975-0.484-1.459-0.729c-3.777-1.73-6.146-4.041-7.153-6.991
									c1.95,2.092,3.789,2.937,5.171,3.312c1.562,0.42,2.789,0.31,3.66,0.975C172.732,264.495,172.81,265.915,173.094,267.651z"/>
							</g>
						</g>
						<g>
							<path style="fill:#FEFEFE;" d="M198.319,389.465c0,4.695-1.062,9.15-2.951,13.128c-1.8,3.806-4.364,7.178-7.488,9.915
								c-3.751,3.303-8.315,5.695-13.355,6.847c-2.206,0.503-4.502,0.772-6.867,0.772c-0.689,0-1.379-0.021-2.062-0.069h-0.028
								c-0.559-0.041-1.11-0.09-1.662-0.165c-1.351-0.159-2.675-0.407-3.958-0.745c-3.978-1.027-7.639-2.834-10.818-5.247
								c-3.537-2.682-6.467-6.116-8.57-10.067c-2.275-4.289-3.572-9.177-3.572-14.369c0-16.934,13.735-30.669,30.669-30.669
								S198.319,372.531,198.319,389.465z"/>
							<path style="fill:#6B758B;" d="M195.368,402.592c-1.8,3.806-4.364,7.178-7.488,9.915c-3.751,3.303-8.315,5.695-13.355,6.847
								c-2.206,0.503-4.502,0.772-6.867,0.772c-0.689,0-1.379-0.021-2.062-0.069h-0.028c-0.559-0.041-1.11-0.09-1.662-0.165
								c-1.351-0.159-2.675-0.407-3.958-0.745c-3.978-1.027-7.639-2.834-10.818-5.247c-3.537-2.682-6.467-6.116-8.57-10.067
								c3.737-1.448,8.426-2.62,13.742-3.392c1.841-0.276,3.765-0.503,5.744-0.669c0.076-0.014,0.159-0.021,0.234-0.021
								c3.041-0.262,6.233-0.4,9.515-0.4h0.414c6.385,0.021,12.383,0.565,17.658,1.503
								C190.576,401.331,193.093,401.917,195.368,402.592z"/>
							<path style="fill:#954C39;" d="M160.237,407.481c-0.686-1.008-0.209-2.26-0.46-4.374c-0.218-1.838,0.468-3.622,0.547-5.456
								c0.049-1.129,0.02-2.075-0.997-2.909c-1.525-1.25-2.466-2.954-3.146-4.818c-0.502-1.378-0.843-2.784-1.147-4.21
								c-0.059-0.275-0.048-0.479,0.061-0.753c0.766-1.925,1.565-3.834,2.623-5.619c1.274-2.148,2.728-4.152,4.832-5.582
								c0.394-0.268,0.829-0.489,1.271-0.668c0.626-0.253,1.152-0.245,1.695,0.36c1.975,2.205,4.09,4.286,6.014,6.533
								c1.207,1.409,1.764,3.179,2.074,5.029c0.439,2.629-0.638,4.821-1.834,7.002c-0.128,0.233-0.175,0.548-0.36,0.705
								c-1.146,0.967-1.319,2.219-1.215,3.613c0.075,1.014,0.012,2.038,0.017,3.057c0.009,1.993,0.156,1.685,1.874,2.103
								c0.882,0.215,1.779,0.358,2.612,0.744c-0.09,0.015-0.151,0.047-0.195,0.09c-0.136,0.137-0.113,0.367-0.111,0.397
								c0.021,0.342-1.448,3.85-4.91,5.512C166.416,409.709,161.775,409.74,160.237,407.481z"/>
							<path style="fill:#6A2F29;" d="M161.182,396.078c2.673,0.876,5.196,0.619,7.615-0.812c-0.26,0.943-1.882,2.192-3.17,2.354
								C163.924,397.833,162.339,397.572,161.182,396.078z"/>
							<path style="fill:#4C5463;" d="M187.88,412.507c-3.751,3.303-8.315,5.695-13.355,6.847c-0.331-0.31-0.62-0.683-0.876-1.124
								c-0.62-1.069-1.034-2.42-1.344-3.958v-0.007c-0.786-3.944-0.924-9.129-2.303-14.066c-0.062-0.29-0.117-0.572-0.152-0.848
								c-0.283-1.841-0.048-3.33,0.414-4.675c0-0.007,0-0.007,0-0.014c0.145-0.414,0.31-0.82,0.49-1.213
								c1.007-2.234,2.434-4.227,2.758-7.122c-0.138-5.633-4.792-8.957-8.674-13.073c-3.503,0.041-6.054,4.792-7.764,7.757
								c-0.71,0.958-1.379,2.22-1.627,3.772c-0.165,1.034-0.117,2.082,0.11,3.116c0.035,0.159,0.076,0.31,0.124,0.462
								c0.021,0.096,0.048,0.193,0.083,0.283c0.745,2.427,2.496,4.723,4.951,6.461c-0.296,1.717-0.434,3.268-0.434,4.647
								c-0.007,2.999,0.579,5.24,1.248,6.895c0.628,1.544,2.007,4.247,1.22,7.329c-0.262,1.027-0.696,1.82-1.034,2.337
								c-0.201,0.555-0.518,1.243-1.027,1.951c-0.246,0.342-0.498,0.635-0.738,0.883c-3.978-1.027-7.639-2.834-10.818-5.247
								c0.11-0.765,0.345-1.579,0.731-2.42c0.692-8.94-0.53-15.444-1.915-19.929c-0.922-2.988-2.783-8.05-0.428-11.267
								c1.001-1.367,1.67-0.978,2.995-2.424c3.12-3.407,1.067-7.378,2.85-10.128c2.67-4.116,13.598-4.965,19.54,0
								c4.82,4.027,3.137,9.474,8.736,21.726c2.034,4.454,4.171,7.929,5.73,10.253c0.179,0.386,0.345,0.765,0.497,1.145
								C189.59,405.219,189.266,409.246,187.88,412.507z"/>
						</g>
						<g>
							<path style="fill:#FEFEFE;" d="M198.315,323.129c0,4.893-1.149,9.515-3.183,13.621
								c-5.016,10.096-15.435,17.042-27.481,17.042c-12.04,0-22.459-6.946-27.474-17.042c-2.04-4.106-3.182-8.728-3.182-13.621
								c0-16.933,13.724-30.663,30.657-30.663C184.591,292.466,198.315,306.196,198.315,323.129z"/>
							<path style="fill:#FE8B97;" d="M195.132,336.75c-5.016,10.096-15.435,17.042-27.481,17.042
								c-12.04,0-22.459-6.946-27.474-17.042c7.32-1.769,16.939-2.84,27.474-2.84C178.193,333.91,187.812,334.981,195.132,336.75z"
								/>
							<g>
								<path style="fill:#B47156;" d="M175.655,334.151c0.966,3.724-1.995,6.628-6.158,6.266c-3.267-0.284-8.824-4.458-9.567-5.146
									c-0.434-0.402-0.3-1.061,0.203-1.39c2.009-1.315,1.977-3.13,1.501-5.185c-0.216-0.934-0.06-1.954-0.072-2.935
									c-1.324-2.256-0.085-4.779-0.729-7.134c-0.187-0.684,0.763-1.34,1.41-1.083c1.666,0.66,1.921-0.575,2.425-1.543
									c0.211-0.404,0.434-0.825,0.502-1.269c0.481-3.153,2.831-4.021,5.456-4.098c2.029-0.06,4.235-0.825,6.116,0.701
									c1.552,5.306,0.812,10.534-0.565,15.733c-0.174,0.658-0.533,1.223-1.138,1.643
									C172.566,330.425,172.828,332.652,175.655,334.151z"/>
								<path style="fill:#5E759B;" d="M176.742,311.334c-2.941-0.047-5.883-0.598-8.788,0.577c-1.143,0.462-1.719,1.014-1.994,2.18
									c-0.276,1.169-0.681,2.342-1.25,3.395c-0.369,0.683-0.772,1.868-2.075,0.64c-0.809-0.763-1.636,0.124-1.27,0.917
									c1.044,2.264-0.261,4.501,0.196,6.717c-3.182-1.467-3.428-4.722-4.523-7.454c-0.222-0.554-0.248-1.186-0.464-1.745
									c-2.62-6.793,1.351-13.18,8.768-14.142c4.532-0.588,8.534,0.712,12.123,3.374
									C179.925,307.618,179.564,310.046,176.742,311.334z"/>
								<path style="fill:#815546;" d="M174.034,333.002c-0.484-0.239-0.975-0.484-1.459-0.729c-3.777-1.73-6.146-4.041-7.153-6.991
									c1.95,2.092,3.789,2.937,5.171,3.312c1.562,0.42,2.789,0.31,3.66,0.975C173.672,329.846,173.75,331.266,174.034,333.002z"/>
								<circle style="fill:#B47156;" cx="162.191" cy="318.808" r="3.03"/>
							</g>
						</g>
					</g>
					<path style="fill:#FE8B97;" d="M220.331,418.2c2.771-3.741,5.138-7.53,8.488-10.499c0.94-0.832,1.923-1.619,2.919-2.382
						c0.595-0.456,1.27-1.398,2.031-0.562c0.981,1.078-0.407,1.755-0.917,2.155c-2.984,2.338-5.415,5.176-7.654,8.177
						c-1.423,1.908-2.565,4.022-3.897,6c-0.934,1.387-2.074,1.699-2.65-0.183c-0.788-2.571-2.17-4.75-3.755-6.853
						c-0.418-0.554-0.881-1.268-0.217-1.814c0.792-0.652,1.372,0.007,2.016,0.57C218.3,414.216,218.527,416.484,220.331,418.2z"/>
					<g>
						<path style="fill:#7B8AD2;" d="M224.297,252.301c4.011,0,8.023,0.072,12.031-0.03c2.023-0.052,2.916,0.575,2.867,2.733
							c-0.19,8.354-0.297,16.711-0.347,25.067c-0.01,1.626-0.541,2.248-2.176,2.234c-8.365-0.074-16.73-0.117-25.095-0.09
							c-1.907,0.006-2.321-0.97-2.312-2.576c0.046-8.247,0.079-16.494,0.079-24.741c0-2.026,0.834-2.801,2.921-2.728
							c4.006,0.14,8.02,0.041,12.031,0.041C224.297,252.24,224.297,252.271,224.297,252.301z M224.171,255.336
							c0-0.019,0-0.037,0-0.056c-3.215,0-6.433,0.075-9.645-0.029c-1.876-0.061-2.678,0.494-2.649,2.519
							c0.09,6.312,0.062,12.627-0.026,18.939c-0.024,1.724,0.505,2.367,2.292,2.539c6.651,0.643,13.308,0.136,19.959,0.304
							c1.642,0.041,2.455-0.748,2.439-2.542c-0.057-6.427-0.049-12.857,0.04-19.284c0.025-1.816-0.683-2.443-2.421-2.409
							C230.832,255.382,227.501,255.336,224.171,255.336z"/>
						<g>
							<path style="fill:#7B8AD2;" d="M284.662,227.583h-73.364c-1.64,0-2.982-1.342-2.982-2.982l0,0
								c0-1.64,1.342-2.982,2.982-2.982h73.364c1.64,0,2.982,1.342,2.982,2.982l0,0
								C287.644,226.241,286.302,227.583,284.662,227.583z"/>
							<path style="fill:#7B8AD2;" d="M284.662,238.372h-73.364c-1.64,0-2.982-1.342-2.982-2.982l0,0
								c0-1.64,1.342-2.982,2.982-2.982h73.364c1.64,0,2.982,1.342,2.982,2.982l0,0C287.644,237.03,286.302,238.372,284.662,238.372
								z"/>
							<path style="fill:#7B8AD2;" d="M248.557,249.092h-37.328c-1.602,0-2.913-1.311-2.913-2.913v0
								c0-1.602,1.311-2.913,2.913-2.913h37.328c1.602,0,2.913,1.311,2.913,2.913v0C251.471,247.781,250.16,249.092,248.557,249.092
								z"/>
						</g>
					</g>
					<g>
						<path style="fill:#7B8AD2;" d="M224.297,324.8c4.011,0,8.023,0.072,12.031-0.03c2.023-0.052,2.916,0.575,2.867,2.733
							c-0.19,8.354-0.297,16.711-0.347,25.067c-0.01,1.626-0.541,2.248-2.176,2.234c-8.365-0.074-16.73-0.117-25.095-0.09
							c-1.907,0.006-2.321-0.97-2.312-2.576c0.046-8.247,0.079-16.494,0.079-24.741c0-2.026,0.834-2.801,2.921-2.728
							c4.006,0.14,8.02,0.041,12.031,0.041C224.297,324.739,224.297,324.769,224.297,324.8z M224.171,327.834
							c0-0.019,0-0.037,0-0.056c-3.215,0-6.433,0.075-9.645-0.029c-1.876-0.061-2.678,0.494-2.649,2.519
							c0.09,6.312,0.062,12.627-0.026,18.939c-0.024,1.724,0.505,2.367,2.292,2.539c6.651,0.643,13.308,0.136,19.959,0.304
							c1.642,0.041,2.455-0.748,2.439-2.542c-0.057-6.427-0.049-12.857,0.04-19.284c0.025-1.816-0.683-2.443-2.421-2.409
							C230.832,327.881,227.501,327.834,224.171,327.834z"/>
						<g>
							<path style="fill:#7B8AD2;" d="M284.662,300.082h-73.364c-1.64,0-2.982-1.342-2.982-2.982l0,0
								c0-1.64,1.342-2.982,2.982-2.982h73.364c1.64,0,2.982,1.342,2.982,2.982l0,0C287.644,298.74,286.302,300.082,284.662,300.082
								z"/>
							<path style="fill:#7B8AD2;" d="M284.662,310.87h-73.364c-1.64,0-2.982-1.342-2.982-2.982l0,0c0-1.64,1.342-2.982,2.982-2.982
								h73.364c1.64,0,2.982,1.342,2.982,2.982l0,0C287.644,309.528,286.302,310.87,284.662,310.87z"/>
							<path style="fill:#7B8AD2;" d="M248.557,321.59h-37.328c-1.602,0-2.913-1.311-2.913-2.913l0,0
								c0-1.602,1.311-2.913,2.913-2.913h37.328c1.602,0,2.913,1.311,2.913,2.913l0,0C251.471,320.279,250.16,321.59,248.557,321.59
								z"/>
						</g>
					</g>
					<g>
						<path style="fill:#7B8AD2;" d="M224.297,397.298c4.011,0,8.023,0.072,12.031-0.03c2.023-0.052,2.916,0.575,2.867,2.733
							c-0.19,8.354-0.297,16.711-0.347,25.067c-0.01,1.626-0.541,2.248-2.176,2.234c-8.365-0.074-16.73-0.117-25.095-0.09
							c-1.907,0.006-2.321-0.97-2.312-2.576c0.046-8.247,0.079-16.494,0.079-24.741c0-2.026,0.834-2.801,2.921-2.728
							c4.006,0.14,8.02,0.041,12.031,0.041C224.297,397.238,224.297,397.268,224.297,397.298z M224.171,400.333
							c0-0.019,0-0.037,0-0.056c-3.215,0-6.433,0.075-9.645-0.029c-1.876-0.061-2.678,0.494-2.649,2.519
							c0.09,6.312,0.062,12.627-0.026,18.939c-0.024,1.724,0.505,2.367,2.292,2.539c6.651,0.643,13.308,0.136,19.959,0.304
							c1.642,0.041,2.455-0.748,2.439-2.542c-0.057-6.427-0.049-12.857,0.04-19.284c0.025-1.816-0.683-2.443-2.421-2.409
							C230.832,400.379,227.501,400.333,224.171,400.333z"/>
						<g>
							<path style="fill:#7B8AD2;" d="M284.662,372.58h-73.364c-1.64,0-2.982-1.342-2.982-2.982l0,0c0-1.64,1.342-2.982,2.982-2.982
								h73.364c1.64,0,2.982,1.342,2.982,2.982l0,0C287.644,371.238,286.302,372.58,284.662,372.58z"/>
							<path style="fill:#7B8AD2;" d="M284.662,383.369h-73.364c-1.64,0-2.982-1.342-2.982-2.982l0,0
								c0-1.64,1.342-2.982,2.982-2.982h73.364c1.64,0,2.982,1.342,2.982,2.982l0,0
								C287.644,382.027,286.302,383.369,284.662,383.369z"/>
							<path style="fill:#7B8AD2;" d="M248.557,394.089h-37.328c-1.602,0-2.913-1.311-2.913-2.913l0,0
								c0-1.602,1.311-2.913,2.913-2.913h37.328c1.602,0,2.913,1.311,2.913,2.913l0,0
								C251.471,392.778,250.16,394.089,248.557,394.089z"/>
						</g>
					</g>
				</g>
			</g>
			<g>
				<g>
					
						<rect x="164.513" y="194.389" transform="matrix(0.4172 0.9088 -0.9088 0.4172 328.0891 -66.4413)" style="fill:#AEC5F7;" width="102.676" height="56.421"/>
					
						<rect x="179.253" y="204.555" transform="matrix(0.4172 0.9088 -0.9088 0.4172 328.0891 -66.4413)" style="fill:#4863E9;" width="73.195" height="36.089"/>
				</g>
				<g>
					<path style="fill:#73492D;" d="M176.79,199.143c8.611,3.812,17.198,7.679,25.841,11.416c4.947,2.139,10.012,0.321,11.975-4.09
						c2.072-4.656,0.054-9.488-5.045-11.874c-9.599-4.492-14.879-5.348-24.984-11.605c-0.995-0.616-1.789-1.149-2.291-1.493
						c7.83-3.569,15.66-7.139,23.49-10.708c-5.481-6.742-11.23-13.287-16.37-20.28c-5.648-7.684-13.751-8.514-22.153-9.317
						c-10.7-1.023-21.377-2.304-32.054-3.557c-2.033-0.239-4.073-0.7-5.877-1.804c-2.374-0.982-3.554,0.31-4.53,2.253
						c-2.894,5.766-4.159,12.123-6.639,18.049c-1.631,3.896-2.842,7.979-4.248,11.976c-0.711,2.018-1.719,4.035-1.095,6.305
						c6.802,1.514,11.651,6.252,17.182,10.001c7.126,4.83,15.361,7.342,23.938,8.495c4.059,0.545,8.113,1.073,12.065,2.241
						c1.008,0.298,1.364,0.638,1.134,1.609C170.368,197.487,173.281,199.523,176.79,199.143z"/>
					<path style="fill:#FE8B97;" d="M-33.515,125.947c3.549-7.209,6.914-14.508,10.349-21.774c3.268-7.09,6.592-14.155,9.766-21.288
						c0.79-1.775,1.66-2.043,3.416-1.421c12.761,4.516,25.553,8.946,38.336,13.402c29.9,10.424,59.789,20.883,89.722,31.215
						c2.772,0.957,4.015,2.115,2.735,4.987c0.288,0.663,0.291,1.357,0.06,2.014c-2.127,6.042-4.137,12.126-6.383,18.126
						c-0.25,0.669-0.567,1.304-1.176,1.657c0.017,0.166,0.027,0.339,0.02,0.526c-1.104,5.966-3.893,11.373-5.646,17.12
						c-0.705,2.312-1.9,4.26-3.635,5.907c-11.247-3.979-22.484-7.987-33.743-11.93c-18.842-6.599-37.698-13.157-56.548-19.733
						c-15.275-5.329-30.547-10.666-45.828-15.977C-33.528,128.273-34.473,127.894-33.515,125.947z"/>
					<path style="fill:#EFEFEF;" d="M120.808,131.069c-2.708,7.345-5.415,14.689-8.123,22.034
						c-2.796,7.803-5.091,15.792-8.638,23.317c1.972-1.729,3.965-2.628,6.464-0.795c1.171,0.859,1.817-0.247,2.301-1.21
						c3.548-10.177,7.069-20.364,10.664-30.524c0.797-2.253,1.97-4.373,2.759-6.628c0.595-1.703,0.486-4.482-1.543-5.194
						C123.414,131.62,122.235,130.904,120.808,131.069z"/>
					<path style="fill:#6D422A;" d="M176.79,199.143c-2.273-0.846-4.586-1.6-6.801-2.577c-1.088-0.48-1.93-0.187-2.858,0.194
						c-2.451,5.302-0.905,8.53,4.305,10.794c2.873,1.248,5.477,3.184,8.52,4.185c-0.356-3.286-1.917-6.223-2.713-9.38
						C176.979,201.311,176.097,200.331,176.79,199.143z"/>
					<path style="fill:#F7A683;" d="M201.186,200.138c-2.512,5.386-2.366,6.132,1.57,7.973c4.755,2.225,7.749,1.384,9.665-2.715
						c1.716-3.671,0.192-7.135-4-9.093C204.539,194.491,203.583,194.998,201.186,200.138z"/>
				</g>
			</g>
			<g>
				<g>
					
						<rect x="209.164" y="102.359" transform="matrix(0.2263 0.9741 -0.9741 0.2263 328.7331 -152.7226)" style="fill:#AEC5F7;" width="102.676" height="56.421"/>
					
						<rect x="223.905" y="112.525" transform="matrix(0.2263 0.9741 -0.9741 0.2263 328.7331 -152.7226)" style="fill:#4863E9;" width="73.195" height="36.089"/>
				</g>
				<g>
					<path style="fill:#FFCCA9;" d="M252.885,110.732c-2.811-8.093-5.517-16.228-8.56-24.238c-0.41-1.078-0.601-1.899-0.457-2.513
						c0.003-0.062-0.003-0.125,0.006-0.186c0.156-1.106,1.015-1.788,2.026-1.945c4.219-1.689,8.601-2.164,13.038-2.982
						c3.427-0.632,6.808-1.477,10.191-2.311c0.01-0.412,0.063-0.836,0.088-1.262c0.395-6.67,0.745-13.342,1.11-20.014
						c0.252-4.605-1.063-8.617-4.009-12.256c-7.644-9.441-17.074-17.082-25.54-25.689c-5.339-5.427-11.128-10.25-14.126-17.823
						c-6.312-15.944-13.433-31.566-20.151-47.351c-3.15-7.401-6.636-14.666-9.184-22.316c-9.012-7.368-18.024-14.736-27.036-22.104
						c-5.117,6.259-9.801,12.947-15.47,18.657c-5.874,5.917-6.659,10.615-2.177,18.353c13.247,22.87,25.221,46.475,37.876,69.693
						c4.243,7.784,8.645,15.356,8.392,24.679c-0.063,2.302,0.628,4.672,1.358,6.981c2.634,8.331,7.49,15.322,12.702,22.157
						c2.576,3.379,5.236,6.756,6.376,10.988c1.437,4.52,4.324,8.377,5.892,12.835c4.192,8.622,8.031,17.408,11.996,26.137
						c1.203,2.649,3.211,4.538,5.797,5.735c3.141,1.453,5.986,0.415,8.413-1.656C253.199,120.795,253.476,112.433,252.885,110.732z"
						/>
					<path style="fill:#F9BE9F;" d="M226.035,91.346c-0.454,0.12-0.704,0.308-0.828,0.532c-0.385,0.693,0.079,1.688,0.165,1.881
						c0.503,1.128,1.584,7.557,3.818,25.488c-2.822-0.57-6.366-1.813-8.287-4.857c-0.845-1.339-1.442-2-1.708-5.317
						c-0.253-3.154-2.109-6.748-3.602-9.827c-1.604-3.307-2.214-6.823-3.507-10.149c-1.923-4.945,1.137-8.641,7.251-9.848
						C222.863,82.566,223.744,87.347,226.035,91.346z"/>
					<path style="fill:#E8B1DE;" d="M245.501,121.118c-0.921,0.244-2.251,0.547-3.356-0.128c-0.491-0.3-0.904-0.829-1.202-1.719
						c-1.047-3.127-2.547-6.371,0.362-9.054c0.954-0.88,2.06-1.432,3.255-1.547c1.867-0.181,3.249,0.712,3.666,0.992
						c2.217,1.488,3.82,4.831,2.617,7.718C249.755,119.99,247,120.721,245.501,121.118z"/>
				</g>
			</g>
			<g>
				<path style="fill:#C5CDF6;" d="M282.906,302.85c0.02-0.318,0.039-0.635,0.059-0.953c1.688-1.322,3.437-0.823,5.281-0.326
					c19.621,5.287,39.299,3.731,58.397-1.655c20.877-5.888,39.518-16.369,54.608-32.487c7.119-7.604,13.28-15.908,17.175-25.506
					c6.707-16.528,7.706-33.697,4.504-51.248c-0.605-3.316-2.943-6.716-0.86-10.329c12.01,8.72,21.039,19.599,25.05,34.207
					c0.95,3.459,1.375,6.968,1.65,10.498c0.533,6.831-2.353,11.07-8.752,13.587c-1.037,0.408-2.577,0.197-3.073,1.653
					c0.054,1.227,1.13,1.549,1.866,1.871c6.476,2.833,7.125,8.019,6.335,14.21c-1.012,7.936-0.83,7.984-8.707,7.324
					c-0.42,0.842-0.044,1.703,0.571,1.999c4.896,2.352,3.884,5.652,1.984,9.539c-2.186,4.474-4.875,8.608-7.855,12.522
					c-3.524,4.626-7.805,7.629-14.252,5.67c-4.111-1.249-8.456-1.728-13.201-2.65c1.313,4.091,4.613,6.084,7.16,8.406
					c2.966,2.703,3.012,4.69,0.122,7.084c-6.753,5.594-13.83,10.74-21.347,15.269c-4.568,2.753-8.966,1.389-13.257-0.661
					c-3.628-1.733-7.107-3.782-10.758-5.46c-1.442-0.663-3.439-2.287-4.619-0.983c-1.394,1.541,1.005,2.864,1.713,4.274
					c0.616,1.225,1.618,2.253,2.431,3.38c3.129,4.336,3.082,4.823-2.135,6.769c-10.959,4.087-22.325,4.049-33.826,3.376
					c-15.051-0.88-27.445-8.041-39.383-16.167c-3.494-2.378-6.052-6.153-6.147-10.883
					C284.084,304.186,283.882,303.396,282.906,302.85z"/>
				<path style="fill:#C2CBF5;" d="M283.275,297.11c4.014-12.19,14.316-17.186,25.045-21.363c5.122-1.994,10.676-2.876,16.036-4.257
					c3.612-0.931,5.229,0.63,6.018,4.162c0.66,2.952,2.11,5.727,3.202,8.583c0.332,0.869,0.599,1.886,1.773,1.804
					c1.254-0.087,1.088-1.295,1.368-2.104c1.293-3.734,0.601-7.667,1.038-11.497c0.317-2.775,1.415-4.038,3.951-4.896
					c5.097-1.724,10.132-3.656,15.098-5.729c2.311-0.964,3.712-1.147,4.325,1.82c0.247,1.195,0.726,2.92,2.505,2.821
					c1.842-0.103,1.809-1.908,2.177-3.154c0.525-1.777,1.417-3.745,1.089-5.423c-1.24-6.347,2.502-10.125,6.446-13.957
					c6.053-5.882,12.371-11.446,19.557-16.821c1.365,5.111,2.639,9.88,4.163,15.582c2.099-2.905,2.252-5.208,2.224-7.613
					c-0.042-3.545,0.1-7.093,0.011-10.636c-0.053-2.1,1.593-3.205,2.791-3.965c11.037-7.003,15.632-17.482,16.724-29.971
					c3.785,7.142,2.956,28.378,0.685,37.735c-4.776,19.678-16.521,34.831-32.206,47.101c-17.265,13.506-36.836,21.39-58.606,24.364
					C313.292,301.799,298.244,300.935,283.275,297.11z"/>
				<path style="fill:#E1E5FA;" d="M422.929,190.674c-0.596-3.266-2.864-6.613-0.942-10.165c-1.081-0.246-2.039-0.657-2.444-1.816
					c0.215-0.67,0.051-1.231-0.602-1.507c-0.702-0.296-1.364,0.001-1.125,0.766c1.285,4.116-0.568,8.468,1.002,12.544
					c3.785,7.142,2.956,28.378,0.685,37.735c-4.776,19.678-16.521,34.831-32.206,47.101c-17.265,13.506-36.836,21.39-58.606,24.364
					c-15.398,2.103-30.446,1.24-45.415-2.585c-3.729-1.047-7.371-2.273-10.932-3.664c0.075,1.29,0.14,2.581,0.191,3.873
					c3.638,1.134,7.27,2.277,10.431,4.578c1.688-1.322,3.437-0.823,5.281-0.326c19.621,5.287,39.299,3.731,58.397-1.655
					c20.877-5.888,39.518-16.369,54.608-32.487c7.119-7.604,13.28-15.908,17.175-25.506
					C425.132,225.394,426.131,208.225,422.929,190.674z"/>
			</g>
			<path style="fill:#C9D1F8;" d="M442.017,335.946c5.174-10.75,7.221-22.354,9.434-33.926c0.402-2.103-0.748-2.317-2.276-2.5
				c-8.771-1.055-17.519-1.898-26.388-0.872c-28.568,3.305-46.754,29.596-43.931,56.519c0.201,1.916,1.031,2.524,2.632,3.164
				c3.071,1.228,6.303,1.654,9.488,2.201c11.62,1.998,22.827,0.681,31.891-3.978C432.359,351.047,438.021,344.248,442.017,335.946z"
				/>
			<path style="fill:#C5CDF6;" d="M420.442,430.038c3.804-4.545,3.487-8.588-1.09-13.916c-3.508-4.084-3.429-4.457,1.615-6.425
				c1.433-0.559,2.922-0.988,4.404-1.41c4.904-1.393,9.858-2.63,14.576-4.602c3.29-1.376,6.373-3.053,8.191-6.344
				c0.396-0.436,0.792-0.871,1.188-1.307c2.271-2.969,1.256-5.719-0.426-8.542c-2.338-3.923-2-5.045,1.994-7.256
				c1.346-0.745,2.826-1.244,4.195-1.953c2.593-1.343,5.267-2.511,7.494-4.522c3.457-3.121,4.251-6.123,2.284-10.278
				c-0.657-1.387-1.393-2.804-2.392-3.948c-1.709-1.958-1.643-3.809-0.38-5.91c1.189-1.978,2.382-3.977,3.307-6.084
				c1.074-2.445,1.749-5.096-0.079-7.479c-2.022-2.637-4.747-3.992-8.138-3.199c-2.702,0.632-5.332,1.576-8.036,2.197
				c-4.293,0.987-6.176,0.176-8.255-3.748c-1.313-2.478-2.853-3.964-5.805-2.826l0,0c-0.246,0.187-0.493,0.374-0.74,0.561
				c0.287,0.515,0.357,1.088,0.371,1.675c-0.015-0.587-0.085-1.16-0.372-1.676c-0.65-0.092-1.159,0.169-1.672,0.556
				c-3.378,2.541-4.17,6.265-4.77,10.126c-0.397,2.552-0.552,5.597-3.599,6.345c-3.122,0.767-3.804-2.278-5.168-4.213
				c-2.136-3.03-4.976-4.388-8.699-3.035c-0.32,0.35-0.639,0.699-0.959,1.049c-0.293-0.318-0.586-0.636-0.879-0.954
				c-4.687,1.255-8.038,4.345-10.808,8.106c-5.001,6.79-7.041,14.618-7.729,22.888c-0.759,9.127-1.326,9.543-10,6.931
				c-2.684-0.809-5.144-1.133-7.03,1.509c0,0,0,0,0,0c-0.196,0.264-0.393,0.529-0.589,0.793c-3.781,4.42-4.66,9.991-5.738,15.368
				c-1.955,9.753-0.328,19.704-1.146,29.543c-0.176,2.116,1.467,3.221,3.325,3.876c0.242,0.176,0.485,0.353,0.727,0.529
				c1.466,1.452,2.582,3.799,5.281,2.379c5.486-2.884,11.257-2.614,17.126-1.756c4.872,0.711,9.652,2.053,14.599,2.238
				c4.925,0.184,9.533-0.618,13.014-4.576C419.905,430.511,420.174,430.274,420.442,430.038z"/>
			<g>
				<g>
					<path style="fill:#7C92FF;" d="M419.728,288.7c-7.25-5.334-14.512-10.653-21.771-15.975c-0.462,0-0.924,0.001-1.386,0.001
						v-0.023h-116.6v0.109c-3.072,0.009-6.144,0.023-9.216,0.033c-2.323,1.757-4.67,3.482-6.963,5.279
						c-5.073,3.976-10.651,7.278-15.449,11.619c0.931,0.69,2.011,0.579,3.072,0.579c55.442-0.001,110.884,0,166.326-0.001
						c1.058,0,2.142,0.135,3.089-0.526C420.465,289.427,420.141,289.003,419.728,288.7z"/>
					<rect x="254.353" y="309.482" style="fill:#7C92FF;" width="156.525" height="136.691"/>
					<path style="fill:#5E759B;" d="M357,359.668c1.277,0.47,0.924,1.579,0.925,2.497c0.015,11.258-0.051,22.516,0.052,33.773
						c0.021,2.338-0.693,3.036-3.029,3.022c-15.068-0.09-30.137-0.081-45.205,0.001c-2.128,0.012-2.904-0.474-2.889-2.767
						c0.099-15.158,0.088-30.316,0.009-45.474c-0.011-2.11,0.431-2.916,2.749-2.9c15.156,0.106,30.314,0.055,45.471,0.067
						c1.373,0.001,3.075-0.37,2.793,1.992c-0.491,3.06-3.034,4.45-5.112,6.194c-0.387,0.324-1.006-0.003-1.452-0.327
						c-1.003-1.08-2.31-1.206-3.669-1.207c-10.288-0.008-20.576-0.025-30.864,0.012c-2.846,0.01-3.133,0.318-3.143,3.292
						c-0.035,10.466,0.016,20.932-0.039,31.398c-0.011,2.113,0.667,3.038,2.898,3.025c10.465-0.059,20.93-0.054,31.395-0.003
						c2.21,0.011,2.922-0.9,2.927-3.02c0.018-7.626-0.19-15.253,0.099-22.874C351.884,363.177,354.218,361.219,357,359.668z"/>
					<path style="fill:#76B39D;" d="M357,359.668c-1.784,1.839-3.569,3.679-5.353,5.518c-1.034,2.511-3.421,3.784-5.266,5.491
						c-4.084,3.779-8.279,7.45-12.576,10.993c-2.526,2.083-4.863,1.826-6.917-0.64c-2.835-3.404-5.272-7.102-7.829-10.709
						c-1.44-2.031-1.19-4.319,0.381-5.471c1.46-1.07,3.608-0.665,5.163,1.169c1.773,2.092,3.299,4.381,4.825,6.659
						c1.022,1.526,1.848,1.674,3.338,0.379c5.807-5.046,11.733-9.953,17.05-15.535c0.67-0.703,1.343-1.426,2.374-1.608
						c2.293-1.638,4.022-3.807,5.688-6.036c4.036,0.212,5.712,2.009,3.94,4.379c-1.231,1.646-2.325,3.495-4.13,4.674
						C357.414,359.11,357.227,359.42,357,359.668z"/>
					<path style="fill:#FDFDFD;" d="M352.189,355.915c-3.353,4.287-7.666,7.585-11.624,11.245c-2.601,2.406-5.405,4.594-7.981,7.026
						c-1.428,1.348-2.191,1.1-3.182-0.446c-1.577-2.46-3.335-4.804-5.037-7.183c-1.156-1.616-2.704-2.594-4.514-1.314
						c-1.782,1.26-1.523,2.994-0.295,4.664c2.467,3.356,4.83,6.79,7.36,10.097c2.575,3.368,3.755,3.47,6.91,0.739
						c5.962-5.16,11.882-10.368,17.819-15.557c0.021,8.591,0.008,17.183,0.091,25.774c0.016,1.669-0.617,2.1-2.186,2.094
						c-11.514-0.048-23.029-0.055-34.543,0.008c-1.723,0.009-2.295-0.5-2.285-2.258c0.068-11.604,0.07-23.208,0.01-34.811
						c-0.009-1.74,0.532-2.282,2.273-2.272c11.514,0.065,23.03,0.099,34.543-0.03C351.419,353.671,351.648,354.782,352.189,355.915z
						"/>
					<rect x="247.996" y="289.761" style="fill:#4863E9;" width="172.926" height="35.464"/>
				</g>
				<g>
					<path style="fill:#AEC5F7;" d="M365.71,259.09c7.964-12.843,15.948-25.673,23.96-38.486c0.983-1.573,0.981-2.7-0.751-3.717
						c-3.885-2.284-7.729-4.638-11.568-6.998c-11.743-7.222-23.47-14.47-35.218-21.684c-2.868-1.761-3.396-1.66-5.006,0.96
						c-3.234,5.261-6.394,10.569-9.616,15.837c-7.877,12.88-15.772,25.749-23.658,38.623c-4.2,6.857-8.383,13.725-12.603,20.57
						c-0.868,1.407-0.699,2.145,0.826,3.13c1.993,1.287,22.581,14.689,23.851,15.3c1.251,0.529,2.577,0.57,3.905,0.572
						c9.453,0.014,18.906,0.015,28.359-0.002c1.321-0.002,2.666,0.045,3.836-0.754c0.786-0.636,1.323-1.468,1.831-2.323
						C354.251,279.422,363.521,262.619,365.71,259.09z"/>
					<path style="fill:#4863E9;" d="M344.778,205.835c0.219,0.135,0.507,0.314,0.796,0.493c7.707,4.768,15.39,9.576,23.136,14.278
						c1.974,1.198,2.424,2.188,1.059,4.36c-7.931,12.624-15.697,25.351-23.512,38.048c-2.637,4.285-5.335,8.535-7.848,12.892
						c-1.32,2.289-2.736,2.171-4.713,0.95c-6.675-4.125-13.379-8.205-20.122-12.219c-3.577-2.13-3.874-2.988-1.659-6.562
						c8.516-13.736,17.053-27.459,25.557-41.203c1.906-3.081,3.718-6.22,5.548-9.347
						C343.431,206.827,343.809,206.142,344.778,205.835z"/>
					<g>
						<g>
							<path style="fill:#7A382B;" d="M369.873,204.684c-0.851-0.233-1.703-0.466-2.554-0.699c0.319-0.194,0.647-0.389,0.983-0.583
								c0.464-0.267,0.92-0.52,1.368-0.758c11.567-3.8,10.967,8.192,34.049-12.852c-2.03,2.696-6.785,8.26-14.976,11.865
								C380.549,205.263,373.233,205.009,369.873,204.684z"/>
						</g>
						<path style="fill:#954C39;" d="M421.443,167.199h-0.708c-24.002,0.084-66.353,15.983-76.282,19.997
							c-7.805,1.686,8.299,5.821,10.637,8.755c-2.384,4.275-6.92,7.926-8.969,11.987c0.074,0.028,0.14,0.065,0.205,0.102
							c0.503,0.242,0.931,0.503,1.285,0.792c0.009,0,0.009,0,0.019,0.009c4.918,3.968-3.847,11.438-8.439,8.979
							c-1.891,2.72,3.316,2.645,5.235,2.906c11.605-0.009,14.772-10.758,22.596-16.467c0.121-0.084,0.242-0.168,0.363-0.251
							c0.298-0.214,0.596-0.41,0.913-0.605c0.438-0.27,0.894-0.522,1.369-0.754c11.568-3.8,10.972,8.187,34.052-12.853
							c-0.13,0.168-0.261,0.345-0.41,0.54c-2.208,2.859-6.865,8.01-14.567,11.326c-9.314,4.014-17.659,3.008-20.947,2.431
							c0.028,0.019,0.065,0.037,0.093,0.056c1.835,1.062,4.452,2.654,7.498,4.732c6.846,4.704,9.668,7.721,12.937,6.902
							c1.313-0.335,1.853-1.062,3.521-2.692c1.313-1.285,6.986-6.361,12.695-9.463c3.185-1.732,7.47-3.018,13.757-3.092
							c0.224-0.009,0.447-0.009,0.671-0.009c2.571-0.112,4.079,0.186,4.983,0.084h0.009c0.028-0.009,0.047-0.009,0.065-0.009
							c1.22-0.177,1.285-1.164,1.406-5.179C425.578,185.659,423.725,175.963,421.443,167.199z"/>
						<path style="fill:#28364B;" d="M424.023,200.618c-0.382,1.872-0.587,3.781-1.285,5.588c-0.913,0.196-1.471-0.447-1.937-0.997
							c-0.987-1.164-1.881-2.412-2.18-3.977c-0.037-0.251-0.196-0.466-0.326-0.699c-0.028-0.047-0.046-0.093-0.074-0.14
							c1.509-0.261,3.008,0.019,4.517,0.056c0.401,0.009,0.81,0.103,1.211,0.158h0.009
							C423.976,200.608,424.004,200.618,424.023,200.618z"/>
						<path style="fill:#F7A683;" d="M347.641,215.681c-0.647,0.873-1.45,1.956-2.932,2.566c-2.565,1.055-5.049-0.177-5.523-0.423
							c2.313-3.297,4.626-6.593,6.938-9.89c0.068,0.034,0.166,0.085,0.282,0.149c0.53,0.292,2.351,1.296,2.908,2.554
							C350.087,212.381,348.432,214.614,347.641,215.681z"/>
						<path style="fill:#43546F;" d="M516.828,199.202c0.177,0.019,0.354,0.047,0.522,0.065c0.009-0.037,0.009-0.075,0.019-0.112
							C517.191,199.165,517.005,199.183,516.828,199.202z M420.735,167.199c1.006,3.558,1.742,7.181,2.384,10.823
							c0.475,2.636,0.875,5.281,1.136,7.936c0.494,4.881,0.838,9.78-0.233,14.642c1.22-0.177,1.285-1.164,1.406-5.179
							c0.149-9.761-1.705-19.457-3.986-28.221H420.735z"/>
						<path style="fill:#43546F;" d="M602.34,192.077c-28.324,2.356-56.648,4.713-84.972,7.079c-0.177,0.009-0.363,0.028-0.54,0.047
							c-0.344-0.065-0.689-0.121-1.006-0.065c-3.307,0.568-6.66,0.503-9.985,0.857c-3.195,0.345-6.427,0.475-9.649,0.652
							c-3.288,0.177-6.566,0.54-9.864,0.782c-0.438,0.037-0.875,0.065-1.313,0.093c-3.679,0.242-7.349,0.615-11.037,0.866
							c-3.679,0.252-26.582,2.096-29.749,2.384c-3.325,0.307-14.437,1.071-15.498,1.155c-1.993,0.149-3.977,0.503-5.989,0.279
							c0.699-1.807,0.904-3.716,1.285-5.588c0-0.009,0-0.009,0-0.019c1.22-0.177,1.285-1.164,1.406-5.179
							c0.149-9.761-1.705-19.457-3.986-28.221h-0.708c-0.009-0.047-0.028-0.084-0.037-0.13c-0.289-1.704-0.279-1.63,1.518-1.965
							c2.971-0.559,5.914-1.229,8.876-1.807c2.813-0.55,5.644-1.015,8.448-1.574c2.776-0.55,5.533-1.183,8.299-1.76
							c2.114-0.447,4.238-0.876,6.371-1.276c2.962-0.568,5.933-1.08,8.895-1.649c2.813-0.531,5.616-1.118,8.429-1.63
							c1.891-0.354,3.782-0.699,5.672-1.034l-0.028-0.149l106.403-20.603C589.831,153.107,596.081,172.592,602.34,192.077z"/>
					</g>
					<path style="fill:#43546F;" d="M516.828,199.202c-10.152,0.838-20.295,1.686-30.448,2.533l-0.056-0.307
						c3.297-0.242,6.576-0.605,9.864-0.782c3.223-0.177,6.455-0.307,9.649-0.652c3.325-0.354,6.678-0.289,9.985-0.857
						C516.139,199.081,516.483,199.137,516.828,199.202z"/>
				</g>
			</g>
		</g>
	</g>
</g>
</svg>
