<svg width="760" height="184" viewBox="0 0 760 184" fill="none" xmlns="http://www.w3.org/2000/svg">
<path d="M151.619 137.02C149.109 137.02 147.859 135.77 147.859 133.26V9.13988C147.859 6.62988 149.119 5.37988 151.619 5.37988H193.369C209.669 5.37988 222.299 9.16988 231.259 16.7599C240.229 24.3499 244.709 35.5299 244.709 50.3299C244.709 64.7499 240.259 75.6199 231.359 82.9599C222.459 90.2899 210.929 93.9599 196.759 93.9599H173.819V133.07C173.819 135.7 172.569 137.02 170.059 137.02H151.619ZM192.239 73.2699C209.789 73.2699 218.569 65.6199 218.569 50.3299C218.569 43.0599 216.279 37.2599 211.709 32.9299C207.129 28.5999 200.329 26.4399 191.309 26.4399H173.819V73.2599H192.239V73.2699Z" fill="#475467"/>
<path d="M257.87 125.45C250.47 116.99 246.77 105.67 246.77 91.51C246.77 77.47 250.5 66.25 257.96 57.85C265.42 49.45 275.73 45.25 288.89 45.25C302.06 45.25 312.4 49.45 319.92 57.85C327.44 66.25 331.2 77.47 331.2 91.51C331.2 105.68 327.47 116.99 320.01 125.45C312.55 133.91 302.18 138.14 288.89 138.14C275.61 138.14 265.26 133.91 257.87 125.45ZM306.76 91.69C306.76 75.02 300.8 66.68 288.89 66.68C276.98 66.68 271.03 75.02 271.03 91.69C271.03 108.36 276.98 116.7 288.89 116.7C300.8 116.7 306.76 108.37 306.76 91.69Z" fill="#475467"/>
<path d="M373.888 132.5C373.888 136.01 370.249 137.83 362.979 137.95C348.809 137.95 341.729 129.99 341.729 114.07V4.44023C341.729 1.81023 342.978 0.490234 345.488 0.490234H362.599C365.109 0.490234 366.358 1.87023 366.358 4.63023V110.13C366.358 114.39 367.679 116.9 370.309 117.65C370.439 117.78 370.779 117.93 371.339 118.12C371.899 118.31 372.339 118.5 372.659 118.68C372.979 118.87 373.259 119.24 373.509 119.81C373.759 120.37 373.888 121.03 373.888 121.78V132.5Z" fill="#475467"/>
<path d="M416.388 132.5C416.388 136.01 412.749 137.83 405.479 137.95C391.309 137.95 384.229 129.99 384.229 114.07V4.44023C384.229 1.81023 385.478 0.490234 387.988 0.490234H405.099C407.609 0.490234 408.858 1.87023 408.858 4.63023V110.13C408.858 114.39 410.179 116.9 412.809 117.65C412.939 117.78 413.279 117.93 413.839 118.12C414.399 118.31 414.839 118.5 415.159 118.68C415.479 118.87 415.759 119.24 416.009 119.81C416.259 120.37 416.388 121.03 416.388 121.78V132.5Z" fill="#475467"/>
<path d="M475.439 124.98C486.219 124.98 494.999 127.33 501.769 132.03C508.539 136.73 511.929 143.66 511.929 152.81C511.929 161.84 508.449 169.2 501.489 174.91C494.529 180.61 482.839 183.47 466.419 183.47C435.449 183.47 419.969 173.88 419.969 154.7C419.969 146.8 423.729 140.03 431.249 134.39C431.119 134.26 430.719 133.89 430.029 133.26C429.339 132.63 428.839 132.13 428.519 131.76C428.209 131.38 427.769 130.85 427.199 130.16C426.639 129.47 426.199 128.81 425.879 128.19C425.559 127.56 425.219 126.84 424.839 126.03C424.459 125.22 424.179 124.34 423.989 123.4C423.799 122.46 423.709 121.49 423.709 120.49C423.709 111.97 427.659 106.26 435.559 103.38C428.539 96.9901 425.029 89.3401 425.029 80.4401C425.029 69.6601 428.919 61.1001 436.689 54.7701C444.459 48.4401 454.179 45.2701 465.839 45.2701C467.849 45.2701 470.139 45.4901 472.699 45.9301C475.269 46.3701 476.739 46.5901 477.119 46.5901C482.009 46.8401 486.429 45.4601 490.379 42.4501C494.329 39.4401 496.429 36.1201 496.679 32.4801C496.809 30.6001 498.059 29.7801 500.439 30.0401L511.719 31.5401C513.469 31.9201 514.349 32.7901 514.349 34.1701C514.099 40.3101 511.899 45.1401 507.769 48.6501C503.629 52.1601 498.869 54.1001 493.479 54.4801C502.509 60.6201 507.019 69.2701 507.019 80.4301C507.019 91.2101 503.039 99.7401 495.079 106.01C487.119 112.28 477.499 115.41 466.209 115.41C461.439 115.41 456.429 114.47 451.169 112.59C445.279 112.59 442.329 114.66 442.329 118.8C442.329 122.94 445.529 125.01 451.919 125.01H475.439V124.98ZM453.239 142.28C445.219 142.28 441.199 145.91 441.199 153.19C441.199 157.08 442.959 159.96 446.469 161.84C449.979 163.72 456.119 164.66 464.899 164.66C474.179 164.66 480.669 163.72 484.359 161.84C488.059 159.96 489.909 156.89 489.909 152.63C489.909 145.73 485.329 142.29 476.179 142.29H453.239V142.28ZM479.199 68.8501C475.809 65.9001 471.429 64.4301 466.039 64.4301C460.649 64.4301 456.259 65.8701 452.869 68.7601C449.479 71.6401 447.789 75.5301 447.789 80.4201C447.789 85.1801 449.449 89.0701 452.769 92.0801C456.089 95.0901 460.449 96.5901 465.839 96.5901C471.359 96.5901 475.809 95.0901 479.189 92.0801C482.579 89.0701 484.269 85.1801 484.269 80.4201C484.269 75.6501 482.579 71.7901 479.199 68.8501Z" fill="#475467"/>
<path d="M522.069 73.2698C522.069 68.6298 520.309 65.9998 516.799 65.3698C515.299 65.2398 514.539 63.9898 514.539 61.6098V49.9498C514.539 46.9398 517.929 45.4398 524.689 45.4398C529.579 45.4398 533.649 46.5998 536.909 48.9198C540.169 51.2398 542.239 54.7198 543.119 59.3598V61.6198C546.629 50.7098 555.589 45.2598 570.009 45.2598C574.519 45.2598 578.349 45.9498 581.479 47.3298C583.489 48.2098 583.929 49.7698 582.799 52.0298L575.469 67.8298C574.839 69.3298 573.779 69.8298 572.269 69.3298C569.509 68.1998 566.319 67.6398 562.679 67.6398C557.409 67.6398 553.429 69.4598 550.739 73.0898C548.039 76.7298 546.629 80.7398 546.509 85.1298V133.08C546.509 135.71 545.249 137.03 542.749 137.03H525.829C523.319 137.03 522.069 135.78 522.069 133.27V73.2698Z" fill="#475467"/>
<path d="M592.59 125.45C585.19 116.99 581.49 105.67 581.49 91.51C581.49 77.47 585.22 66.25 592.68 57.85C600.14 49.45 610.45 45.25 623.61 45.25C636.78 45.25 647.12 49.45 654.64 57.85C662.16 66.25 665.92 77.47 665.92 91.51C665.92 105.68 662.19 116.99 654.73 125.45C647.27 133.91 636.9 138.14 623.61 138.14C610.33 138.14 599.98 133.91 592.59 125.45ZM641.48 91.69C641.48 75.02 635.52 66.68 623.61 66.68C611.7 66.68 605.75 75.02 605.75 91.69C605.75 108.36 611.7 116.7 623.61 116.7C635.52 116.7 641.48 108.37 641.48 91.69Z" fill="#475467"/>
<path d="M686.629 125.45C679.229 116.99 675.529 105.67 675.529 91.51C675.529 77.47 679.259 66.25 686.719 57.85C694.179 49.45 704.489 45.25 717.649 45.25C730.819 45.25 741.159 49.45 748.679 57.85C756.199 66.25 759.959 77.47 759.959 91.51C759.959 105.68 756.229 116.99 748.769 125.45C741.309 133.91 730.939 138.14 717.649 138.14C704.369 138.14 694.019 133.91 686.629 125.45ZM735.519 91.69C735.519 75.02 729.559 66.68 717.649 66.68C705.739 66.68 699.789 75.02 699.789 91.69C699.789 108.36 705.739 116.7 717.649 116.7C729.559 116.7 735.519 108.37 735.519 91.69Z" fill="#475467"/>
<path d="M65.44 0C34.69 0 8.67 20.26 0 48.17C11.91 44.44 30.79 41.06 45.19 50.43C67.93 65.23 81.27 44.75 81.27 44.75C81.27 44.75 78.2 44.02 76.6 42.59C75.78 41.86 66.32 31.38 71.47 31.27C71.47 31.27 81.13 34.07 82.11 35.07C83.09 36.06 80.1 22.03 83.2 22.29C86.07 22.52 91.31 28.5 91.65 35.09C91.7 36.14 92.3 37.09 93.21 37.63C95.02 38.69 97.87 40.19 98.88 39.75C100.4 39.08 104.11 39.26 108.3 44.67C108.3 44.67 114.09 49.03 118.47 50.73C118.47 50.73 123.97 53.65 119.85 57.33C119.85 57.33 117.09 61.09 108.17 60.41C108.17 60.41 101.62 65.35 95.13 62.42C95.13 62.42 90.56 65.41 89.11 67.67C89.11 67.67 75.21 84.37 68.19 87.01C67.28 87.35 66.47 87.92 65.78 88.61L63.33 91.07C63.33 91.07 63.51 94.05 63.59 95.13C63.66 96.01 66.77 111.02 67.18 114.73C67.34 116.13 66.98 117.68 66.69 118.63C66.54 119.12 66.45 119.62 66.47 120.12C66.55 122.18 64.2 124.27 64.2 124.27C64.15 124.3 64.63 124.96 61.67 127C58.71 129.04 56.46 126.5 57.23 127.08C58 127.65 59.48 125.9 59.48 125.9C59.24 125.08 60.54 124.23 61.08 123.87C61.63 123.51 60.98 122.37 60.98 122.37C59.63 123.74 59.02 123.26 59.02 123.26C57.2 124.36 55.62 123.14 55.62 123.14C56.81 123.92 58 122.75 58 122.75C58.01 121.57 59.68 119.88 59.68 119.88C58.7 118.89 60.24 116.25 60.78 115.57C61.32 114.89 60.67 110.42 60.67 110.42C60.67 103.42 56.44 97.05 54.24 94.21C53.55 93.32 52.39 92.98 51.33 93.34C46.57 94.95 36.35 95.98 32.33 96.34C31.37 96.43 30.61 97.17 30.5 98.13C29.51 107.25 26.31 117.6 24.34 123.33C35.79 131.92 50.01 137.02 65.43 137.02C103.27 137.02 133.94 106.35 133.94 68.51C133.94 30.67 103.27 0 65.44 0Z" fill="#475467"/>
</svg>
