<svg width="224" height="53" viewBox="0 0 224 53" fill="none" xmlns="http://www.w3.org/2000/svg">
<path d="M57.021 21.2159C62.161 21.2159 64.7308 19.0273 64.7308 14.6506C64.7308 12.5696 64.061 10.9104 62.7206 9.67276C61.3805 8.43509 59.3891 7.81612 56.7452 7.81612H51.6237V21.2159H57.021ZM45.1249 39.459C44.391 39.459 44.0234 39.1001 44.0234 38.3827V2.86514C44.0234 2.14772 44.391 1.78888 45.1249 1.78888H57.3514C62.1244 1.78888 65.8232 2.87402 68.4484 5.0446C71.0738 7.21517 72.3864 10.4171 72.3864 14.6506C72.3864 18.7763 71.0829 21.8884 68.4759 23.9874C65.8692 26.0861 62.4913 27.1358 58.3427 27.1358H51.6237V38.3289C51.6237 39.0824 51.2567 39.459 50.5223 39.459H45.1249Z" fill="white"/>
<path d="M90.5585 26.4888C90.5585 21.7173 88.8142 19.3315 85.3263 19.3315C81.8384 19.3315 80.0947 21.7173 80.0947 26.4888C80.0947 31.2606 81.8384 33.6464 85.3263 33.6464C88.8142 33.6464 90.5585 31.2606 90.5585 26.4888ZM76.2398 36.1487C74.0732 33.7271 72.9902 30.4891 72.9902 26.435C72.9902 22.417 74.0826 19.2062 76.267 16.8024C78.4512 14.3986 81.4714 13.1967 85.3263 13.1967C89.1818 13.1967 92.2105 14.3986 94.4134 16.8024C96.6165 19.2062 97.718 22.417 97.718 26.435C97.718 30.4891 96.6256 33.7271 94.4409 36.1487C92.2562 38.5702 89.2184 39.7812 85.3263 39.7812C81.4345 39.7812 78.4055 38.5702 76.2398 36.1487Z" fill="white"/>
<path d="M110.216 38.1641C110.216 39.1689 109.151 39.6888 107.022 39.7246C102.873 39.7246 100.799 37.4464 100.799 32.8904V1.51622C100.799 0.763032 101.166 0.386141 101.9 0.386141H106.912C107.646 0.386141 108.013 0.781057 108.013 1.57002V31.7603C108.013 32.9799 108.398 33.6974 109.17 33.9126C109.206 33.9486 109.308 33.9933 109.473 34.0473C109.638 34.1011 109.766 34.1549 109.858 34.2087C109.95 34.2625 110.033 34.3701 110.106 34.5315C110.18 34.6932 110.216 34.8815 110.216 35.0964V38.1641Z" fill="white"/>
<path d="M122.664 38.1641C122.664 39.1689 121.599 39.6888 119.469 39.7246C115.32 39.7246 113.246 37.4464 113.246 32.8904V1.51622C113.246 0.763032 113.613 0.386141 114.348 0.386141H119.359C120.093 0.386141 120.461 0.781057 120.461 1.57002V31.7603C120.461 32.9799 120.846 33.6974 121.617 33.9126C121.654 33.9486 121.755 33.9933 121.92 34.0473C122.085 34.1011 122.213 34.1549 122.305 34.2087C122.397 34.2625 122.48 34.3701 122.553 34.5315C122.627 34.6932 122.664 34.8815 122.664 35.0964V38.1641Z" fill="white"/>
<path d="M141.053 19.9482C140.062 19.1052 138.777 18.6836 137.198 18.6836C135.619 18.6836 134.334 19.0963 133.343 19.9213C132.351 20.7463 131.856 21.8587 131.856 23.2577C131.856 24.621 132.342 25.7334 133.315 26.5944C134.288 27.4552 135.564 27.8859 137.142 27.8859C138.758 27.8859 140.062 27.4552 141.053 26.5944C142.044 25.7334 142.54 24.621 142.54 23.2577C142.54 21.8944 142.044 20.7916 141.053 19.9482ZM133.453 40.9629C131.103 40.9629 129.928 42.0031 129.928 44.0841C129.928 45.1961 130.442 46.0211 131.47 46.5594C132.499 47.0977 134.297 47.3667 136.867 47.3667C139.585 47.3667 141.484 47.0977 142.567 46.5594C143.65 46.0211 144.192 45.1423 144.192 43.9227C144.192 41.9493 142.852 40.9629 140.172 40.9629H133.453ZM139.952 36.0119C143.109 36.0119 145.679 36.6844 147.661 38.0299C149.644 39.3752 150.636 41.3575 150.636 43.9765C150.636 46.5594 149.617 48.6673 147.579 50.2996C145.542 51.9322 142.118 52.748 137.308 52.748C128.239 52.748 123.705 50.0034 123.705 44.5148C123.705 42.2543 124.807 40.3173 127.009 38.7027C126.973 38.6669 126.854 38.559 126.652 38.3796C126.449 38.2005 126.302 38.0568 126.211 37.9492C126.119 37.8416 125.99 37.6891 125.825 37.4919C125.66 37.2945 125.532 37.1062 125.44 36.9268C125.348 36.7473 125.247 36.541 125.137 36.3078C125.027 36.0746 124.944 35.8236 124.889 35.5543C124.834 35.2856 124.807 35.0072 124.807 34.7204C124.807 32.2808 125.963 30.6486 128.276 29.8233C126.22 27.9935 125.192 25.8049 125.192 23.2577C125.192 20.1723 126.33 17.7238 128.606 15.9121C130.883 14.1004 133.728 13.1944 137.142 13.1944C137.73 13.1944 138.401 13.2571 139.153 13.383C139.906 13.5083 140.337 13.5713 140.447 13.5713C141.879 13.6428 143.173 13.2482 144.33 12.3874C145.487 11.526 146.101 10.5757 146.175 9.53519C146.211 8.99691 146.579 8.76397 147.276 8.83551L150.581 9.2659C151.094 9.37378 151.352 9.62475 151.352 10.0194C151.278 11.7773 150.636 13.1586 149.424 14.1631C148.213 15.1678 146.817 15.7238 145.238 15.8314C147.882 17.5894 149.204 20.0647 149.204 23.2577C149.204 26.3432 148.038 28.7827 145.707 30.5767C143.375 32.3704 140.557 33.2673 137.253 33.2673C135.857 33.2673 134.389 32.9983 132.847 32.4603C131.121 32.4603 130.259 33.0521 130.259 34.2359C130.259 35.4198 131.195 36.0119 133.067 36.0119H139.952Z" fill="white"/>
<path d="M153.615 21.2159C153.615 19.8886 153.101 19.1352 152.073 18.9557C151.632 18.9197 151.412 18.5611 151.412 17.8792V14.543C151.412 13.682 152.403 13.2513 154.386 13.2513C155.817 13.2513 157.011 13.5832 157.965 14.2469C158.92 14.9105 159.526 15.9063 159.783 17.2336V17.8792C160.811 14.7582 163.436 13.1975 167.659 13.1975C168.98 13.1975 170.1 13.3949 171.017 13.7895C171.605 14.0408 171.734 14.4889 171.403 15.1351L169.255 19.6554C169.072 20.0858 168.76 20.2292 168.319 20.0858C167.511 19.763 166.575 19.6013 165.511 19.6013C163.968 19.6013 162.803 20.1216 162.014 21.1621C161.224 22.2026 160.811 23.3507 160.775 24.6061V38.3289C160.775 39.0824 160.407 39.459 159.673 39.459H154.716C153.982 39.459 153.615 39.1001 153.615 38.3827V21.2159Z" fill="white"/>
<path d="M188.58 26.4888C188.58 21.7173 186.836 19.3315 183.348 19.3315C179.86 19.3315 178.116 21.7173 178.116 26.4888C178.116 31.2606 179.86 33.6464 183.348 33.6464C186.836 33.6464 188.58 31.2606 188.58 26.4888ZM174.261 36.1487C172.095 33.7271 171.012 30.4891 171.012 26.435C171.012 22.417 172.104 19.2062 174.288 16.8024C176.473 14.3986 179.493 13.1967 183.348 13.1967C187.203 13.1967 190.232 14.3986 192.435 16.8024C194.638 19.2062 195.739 22.417 195.739 26.435C195.739 30.4891 194.647 33.7271 192.462 36.1487C190.278 38.5702 187.24 39.7812 183.348 39.7812C179.456 39.7812 176.427 38.5702 174.261 36.1487Z" fill="white"/>
<path d="M216.121 26.4888C216.121 21.7173 214.377 19.3315 210.889 19.3315C207.401 19.3315 205.657 21.7173 205.657 26.4888C205.657 31.2606 207.401 33.6464 210.889 33.6464C214.377 33.6464 216.121 31.2606 216.121 26.4888ZM201.802 36.1487C199.636 33.7271 198.553 30.4891 198.553 26.435C198.553 22.417 199.645 19.2062 201.83 16.8024C204.014 14.3986 207.034 13.1967 210.889 13.1967C214.744 13.1967 217.773 14.3986 219.976 16.8024C222.179 19.2062 223.28 22.417 223.28 26.435C223.28 30.4891 222.188 33.7271 220.003 36.1487C217.819 38.5702 214.781 39.7812 210.889 39.7812C206.997 39.7812 203.968 38.5702 201.802 36.1487Z" fill="white"/>
<path d="M19.8825 0.250158C10.8762 0.250158 3.25578 6.04904 0.71875 14.0342C4.20551 12.9657 9.73555 11.999 13.9536 14.6815C20.6117 18.9157 24.5184 13.0558 24.5184 13.0558C24.5184 13.0558 23.6187 12.8463 23.1493 12.4383C22.9106 12.2308 20.1399 9.23006 21.6475 9.19887C21.6475 9.19887 24.478 10.0016 24.7635 10.2854C25.0494 10.5693 24.1746 6.55527 25.0827 6.62767C25.9247 6.69463 27.4569 8.40476 27.5568 10.292C27.5729 10.5936 27.746 10.8652 28.0128 11.0183C28.5426 11.3222 29.3781 11.7518 29.673 11.625C30.1181 11.4336 31.2038 11.4856 32.432 13.0335C32.432 13.0335 34.1282 14.2818 35.4095 14.7688C35.4095 14.7688 37.0205 15.6047 35.8148 16.6564C35.8148 16.6564 35.0077 17.7329 32.3936 17.5383C32.3936 17.5383 30.4754 18.9523 28.5762 18.1138C28.5762 18.1138 27.239 18.9695 26.8124 19.6156C26.8124 19.6156 22.7414 24.3943 20.687 25.1501C20.4199 25.2485 20.1824 25.4113 19.9809 25.6088L19.2634 26.3125C19.2634 26.3125 19.3152 27.165 19.3386 27.4738C19.3577 27.7262 20.2693 32.0204 20.39 33.0815C20.4357 33.4833 20.3305 33.9248 20.2462 34.1975C20.2032 34.3363 20.1747 34.48 20.1806 34.6251C20.2046 35.2143 19.5167 35.8118 19.5167 35.8118C19.5012 35.8209 19.6423 36.0101 18.7749 36.593C17.9071 37.1759 17.2497 36.4511 17.474 36.615C17.6983 36.7787 18.1338 36.2765 18.1338 36.2765C18.0629 36.0427 18.4431 35.7992 18.6033 35.6967C18.7635 35.5943 18.5737 35.2686 18.5737 35.2686C18.1789 35.661 18.0008 35.5233 18.0008 35.5233C17.4673 35.8367 17.0057 35.4893 17.0057 35.4893C17.3557 35.7128 17.7036 35.3782 17.7036 35.3782C17.7062 35.0411 18.1959 34.5561 18.1959 34.5561C17.9101 34.2722 18.3599 33.5176 18.5169 33.3241C18.6736 33.1304 18.4849 31.851 18.4849 31.851C18.4855 29.8481 17.247 28.0246 16.6028 27.2113C16.4019 26.9578 16.0604 26.8593 15.7494 26.9621C14.3554 27.422 11.3621 27.717 10.1857 27.8191C9.9051 27.8435 9.68166 28.0572 9.65091 28.3308C9.35981 30.9409 8.42324 33.9013 7.84836 35.5419C11.201 38.0015 15.3675 39.459 19.8825 39.459C30.9627 39.459 39.9453 30.6817 39.9453 19.8546C39.9453 9.02746 30.9627 0.250158 19.8825 0.250158Z" fill="white"/>
</svg>
