<svg width="16" height="17" viewBox="0 0 16 17" fill="none" xmlns="http://www.w3.org/2000/svg">
<path d="M7.81723 0C4.14395 0 1.03569 2.42019 0 5.75422C1.42273 5.30865 3.67806 4.90488 5.39824 6.02419C8.11468 7.79215 9.70823 5.34568 9.70823 5.34568C9.70823 5.34568 9.3415 5.25847 9.15037 5.08765C9.05241 5.00045 7.92235 3.74854 8.53755 3.7354C8.53755 3.7354 9.6915 4.06988 9.80857 4.18934C9.92564 4.3076 9.56846 2.63163 9.93878 2.66268C10.2816 2.69016 10.9076 3.40451 10.9482 4.19173C10.9542 4.31716 11.0258 4.43064 11.1345 4.49515C11.3508 4.62177 11.6912 4.80096 11.8119 4.74839C11.9934 4.66836 12.4366 4.68986 12.9371 5.33612C12.9371 5.33612 13.6288 5.85695 14.152 6.06003C14.152 6.06003 14.809 6.40884 14.3169 6.84844C14.3169 6.84844 13.9872 7.2976 12.9216 7.21637C12.9216 7.21637 12.1392 7.80648 11.3639 7.45647C11.3639 7.45647 10.818 7.81365 10.6448 8.08362C10.6448 8.08362 8.98432 10.0785 8.14574 10.3939C8.03703 10.4345 7.94027 10.5026 7.85785 10.585L7.56518 10.8789C7.56518 10.8789 7.58668 11.2349 7.59624 11.3639C7.6046 11.469 7.97611 13.2621 8.02509 13.7052C8.0442 13.8725 8.00119 14.0576 7.96655 14.1711C7.94863 14.2297 7.93788 14.2894 7.94027 14.3491C7.94983 14.5952 7.66911 14.8449 7.66911 14.8449C7.66313 14.8484 7.72047 14.9273 7.36688 15.171C7.01329 15.4147 6.74451 15.1112 6.83649 15.1805C6.92848 15.2486 7.10527 15.0396 7.10527 15.0396C7.0766 14.9416 7.23189 14.8401 7.2964 14.7971C7.3621 14.7541 7.28446 14.6179 7.28446 14.6179C7.12319 14.7815 7.05032 14.7242 7.05032 14.7242C6.83291 14.8556 6.64417 14.7099 6.64417 14.7099C6.78632 14.803 6.92848 14.6633 6.92848 14.6633C6.92967 14.5223 7.12916 14.3204 7.12916 14.3204C7.01209 14.2022 7.19606 13.8868 7.26056 13.8056C7.32507 13.7244 7.24742 13.1904 7.24742 13.1904C7.24742 12.3542 6.74212 11.5933 6.47932 11.254C6.39689 11.1477 6.25832 11.1071 6.1317 11.1501C5.56309 11.3424 4.34224 11.4654 3.86203 11.5084C3.74735 11.5192 3.65656 11.6076 3.64342 11.7223C3.52516 12.8117 3.1429 14.0481 2.90757 14.7326C4.27535 15.7587 5.97402 16.3679 7.81604 16.3679C12.3363 16.3679 16 12.7042 16 8.18396C16 3.66373 12.3363 0 7.81723 0Z" fill="#0066FF"/>
</svg>
